<?xml version="1.0" encoding="utf-8"?>
<!-- Generator: Adobe Illustrator 28.0.0, SVG Export Plug-In . SVG Version: 6.00 Build 0)  -->
<svg version="1.1" id="Capa_1" xmlns="http://www.w3.org/2000/svg" xmlns:xlink="http://www.w3.org/1999/xlink" x="0px" y="0px"
	 viewBox="0 0 132.4 51.9" style="enable-background:new 0 0 132.4 51.9;" xml:space="preserve">
<style type="text/css">
	.st0{fill:#FFFFFF;}
</style>
<g>
	<g>
		<path class="st0" d="M56,3L56,3c0-1.4,1-2.5,2.5-2.5c0.8,0,1.3,0.3,1.7,0.6c0.1,0,0.1,0.1,0.1,0.2c0,0.1-0.1,0.3-0.3,0.3
			c-0.1,0-0.1,0-0.2-0.1c-0.4-0.3-0.8-0.6-1.4-0.6c-1.1,0-1.9,0.9-1.9,2v0c0,1.1,0.8,2,1.9,2c0.6,0,1-0.2,1.4-0.6
			c0,0,0.1-0.1,0.2-0.1c0.1,0,0.3,0.1,0.3,0.3c0,0.1,0,0.2-0.1,0.2c-0.5,0.4-1,0.7-1.8,0.7C57.1,5.5,56,4.3,56,3"/>
		<path class="st0" d="M61.4,3L61.4,3c0-1.4,1-2.5,2.5-2.5c1.5,0,2.5,1.2,2.5,2.5v0c0,1.3-1,2.5-2.5,2.5C62.4,5.5,61.4,4.3,61.4,3
			 M65.8,3L65.8,3c0-1.1-0.8-2-1.9-2c-1.1,0-1.9,0.9-1.9,2v0c0,1.1,0.8,2,1.9,2C65,4.9,65.8,4.1,65.8,3"/>
		<path class="st0" d="M67.8,0.8c0-0.1,0.1-0.3,0.3-0.3h0.1c0.1,0,0.2,0.1,0.3,0.2l2.9,3.8V0.8c0-0.1,0.1-0.3,0.3-0.3
			c0.1,0,0.3,0.1,0.3,0.3v4.4c0,0.1-0.1,0.3-0.2,0.3h0c-0.1,0-0.2-0.1-0.3-0.2l-3-3.8v3.8c0,0.1-0.1,0.3-0.3,0.3
			c-0.1,0-0.3-0.1-0.3-0.3V0.8z"/>
		<path class="st0" d="M73.5,4.8c-0.1,0-0.1-0.1-0.1-0.2c0-0.2,0.1-0.3,0.3-0.3c0.1,0,0.1,0,0.2,0.1c0.5,0.4,0.9,0.6,1.5,0.6
			c0.7,0,1.1-0.3,1.1-0.8v0c0-0.4-0.2-0.7-1.3-0.9c-1.1-0.2-1.6-0.6-1.6-1.4v0c0-0.8,0.7-1.3,1.6-1.3c0.6,0,1.1,0.2,1.5,0.5
			c0.1,0,0.1,0.1,0.1,0.2c0,0.1-0.1,0.3-0.3,0.3c-0.1,0-0.1,0-0.2,0c-0.4-0.3-0.8-0.4-1.3-0.4c-0.6,0-1,0.3-1,0.8v0
			c0,0.5,0.2,0.7,1.3,0.9C76.5,2.9,77,3.3,77,4.1v0c0,0.8-0.7,1.4-1.7,1.4C74.6,5.4,74,5.2,73.5,4.8"/>
		<path class="st0" d="M78.4,5.1V0.8c0-0.2,0.1-0.3,0.3-0.3h3c0.1,0,0.2,0.1,0.2,0.2C82,0.9,81.9,1,81.7,1H79v1.7h2.4
			c0.1,0,0.2,0.1,0.2,0.2c0,0.1-0.1,0.3-0.2,0.3H79v1.7h2.8C81.9,4.9,82,5,82,5.1c0,0.1-0.1,0.3-0.2,0.3h-3.1
			C78.6,5.4,78.4,5.2,78.4,5.1"/>
		<path class="st0" d="M83.4,0.8c0-0.2,0.1-0.3,0.3-0.3h1.8c0.6,0,1.1,0.2,1.4,0.5c0.2,0.2,0.4,0.6,0.4,1v0c0,0.8-0.5,1.3-1.3,1.4
			l1.2,1.6c0.1,0.1,0.1,0.1,0.1,0.2c0,0.1-0.1,0.3-0.3,0.3c-0.1,0-0.2-0.1-0.3-0.1l-1.4-1.8H84v1.6c0,0.2-0.1,0.3-0.3,0.3
			c-0.1,0-0.3-0.1-0.3-0.3V0.8z M85.5,3c0.7,0,1.2-0.4,1.2-1v0c0-0.6-0.5-1-1.2-1H84v2H85.5z"/>
		<path class="st0" d="M90.2,5.2l-1.9-4.3c0,0,0-0.1,0-0.1c0-0.1,0.1-0.3,0.3-0.3c0.1,0,0.2,0.1,0.3,0.2l1.7,4l1.7-4
			c0-0.1,0.1-0.2,0.3-0.2c0.2,0,0.3,0.1,0.3,0.3c0,0,0,0.1,0,0.1l-1.9,4.3c-0.1,0.1-0.2,0.2-0.3,0.2h0C90.4,5.4,90.3,5.3,90.2,5.2"
			/>
		<path class="st0" d="M93.3,5l2-4.3c0.1-0.2,0.2-0.2,0.3-0.2h0c0.2,0,0.3,0.1,0.3,0.2l2,4.3c0,0,0,0.1,0,0.1c0,0.1-0.1,0.3-0.3,0.3
			c-0.1,0-0.2-0.1-0.3-0.2l-0.5-1.1h-2.7l-0.5,1.1c0,0.1-0.1,0.2-0.3,0.2c-0.1,0-0.2-0.1-0.2-0.2C93.2,5.1,93.2,5.1,93.3,5
			 M96.7,3.6l-1.1-2.5l-1.1,2.5H96.7z"/>
		<path class="st0" d="M100,1h-1.4c-0.1,0-0.3-0.1-0.3-0.2c0-0.1,0.1-0.3,0.3-0.3h3.4c0.1,0,0.3,0.1,0.3,0.3c0,0.1-0.1,0.2-0.3,0.2
			h-1.4v4.1c0,0.2-0.1,0.3-0.3,0.3c-0.2,0-0.3-0.1-0.3-0.3V1z"/>
		<path class="st0" d="M103,3L103,3c0-1.4,1-2.5,2.5-2.5c1.5,0,2.5,1.2,2.5,2.5v0c0,1.3-1,2.5-2.5,2.5C104,5.5,103,4.3,103,3
			 M107.4,3L107.4,3c0-1.1-0.8-2-1.9-2c-1.1,0-1.9,0.9-1.9,2v0c0,1.1,0.8,2,1.9,2C106.6,4.9,107.4,4.1,107.4,3"/>
		<path class="st0" d="M109.5,0.8c0-0.2,0.1-0.3,0.3-0.3h1.8c0.6,0,1.1,0.2,1.4,0.5c0.2,0.2,0.4,0.6,0.4,1v0c0,0.8-0.5,1.3-1.3,1.4
			l1.2,1.6c0.1,0.1,0.1,0.1,0.1,0.2c0,0.1-0.1,0.3-0.3,0.3c-0.1,0-0.2-0.1-0.3-0.1l-1.4-1.8H110v1.6c0,0.2-0.1,0.3-0.3,0.3
			c-0.1,0-0.3-0.1-0.3-0.3V0.8z M111.5,3c0.7,0,1.2-0.4,1.2-1v0c0-0.6-0.5-1-1.2-1H110v2H111.5z"/>
		<path class="st0" d="M114.9,0.8c0-0.2,0.1-0.3,0.3-0.3c0.2,0,0.3,0.1,0.3,0.3v4.4c0,0.2-0.1,0.3-0.3,0.3c-0.1,0-0.3-0.1-0.3-0.3
			V0.8z"/>
		<path class="st0" d="M117,3L117,3c0-1.4,1-2.5,2.5-2.5c1.5,0,2.5,1.2,2.5,2.5v0c0,1.3-1,2.5-2.5,2.5C118,5.5,117,4.3,117,3
			 M121.4,3L121.4,3c0-1.1-0.8-2-1.9-2c-1.1,0-1.9,0.9-1.9,2v0c0,1.1,0.8,2,1.9,2C120.6,4.9,121.4,4.1,121.4,3"/>
		<path class="st0" d="M56.1,13c-0.1,0-0.1-0.1-0.1-0.2c0-0.2,0.1-0.3,0.3-0.3c0.1,0,0.1,0,0.2,0.1c0.5,0.4,0.9,0.6,1.5,0.6
			c0.7,0,1.1-0.3,1.1-0.8v0c0-0.4-0.2-0.7-1.3-0.9c-1.1-0.2-1.6-0.6-1.6-1.4v0c0-0.8,0.7-1.3,1.6-1.3c0.6,0,1.1,0.2,1.5,0.5
			c0.1,0,0.1,0.1,0.1,0.2c0,0.1-0.1,0.3-0.3,0.3c-0.1,0-0.1,0-0.2,0c-0.4-0.3-0.8-0.4-1.3-0.4c-0.6,0-1,0.3-1,0.8v0
			c0,0.5,0.2,0.7,1.3,0.9c1.1,0.2,1.6,0.6,1.6,1.4v0c0,0.8-0.7,1.4-1.7,1.4C57.2,13.6,56.6,13.4,56.1,13"/>
		<path class="st0" d="M61,11.5V8.9c0-0.2,0.1-0.3,0.3-0.3c0.2,0,0.3,0.1,0.3,0.3v2.5c0,1,0.6,1.6,1.5,1.6c0.9,0,1.5-0.5,1.5-1.6
			V8.9c0-0.2,0.1-0.3,0.3-0.3c0.1,0,0.3,0.1,0.3,0.3v2.5c0,1.4-0.8,2.1-2,2.1C61.8,13.6,61,12.9,61,11.5"/>
		<path class="st0" d="M66.7,9c0-0.2,0.1-0.3,0.3-0.3h1.5c1.1,0,1.8,0.6,1.8,1.5v0c0,1-0.9,1.6-1.9,1.6h-1.2v1.5
			c0,0.2-0.1,0.3-0.3,0.3c-0.1,0-0.3-0.1-0.3-0.3V9z M68.4,11.3c0.8,0,1.3-0.4,1.3-1.1v0c0-0.7-0.5-1.1-1.3-1.1h-1.2v2.1H68.4z"/>
		<path class="st0" d="M71.6,13.3V9c0-0.2,0.1-0.3,0.3-0.3h3c0.1,0,0.2,0.1,0.2,0.3c0,0.1-0.1,0.2-0.2,0.2h-2.7v1.7h2.4
			c0.1,0,0.2,0.1,0.2,0.2c0,0.1-0.1,0.2-0.2,0.2h-2.4v1.7H75c0.1,0,0.2,0.1,0.2,0.2c0,0.1-0.1,0.3-0.2,0.3h-3.1
			C71.8,13.6,71.6,13.4,71.6,13.3"/>
		<path class="st0" d="M76.6,9c0-0.2,0.1-0.3,0.3-0.3h1.8c0.6,0,1.1,0.2,1.4,0.5c0.2,0.2,0.4,0.6,0.4,1v0c0,0.8-0.5,1.3-1.3,1.4
			l1.2,1.6c0.1,0.1,0.1,0.1,0.1,0.2c0,0.1-0.1,0.3-0.3,0.3c-0.1,0-0.2-0.1-0.3-0.1l-1.4-1.8h-1.4v1.6c0,0.2-0.1,0.3-0.3,0.3
			c-0.1,0-0.3-0.1-0.3-0.3V9z M78.7,11.2c0.7,0,1.2-0.4,1.2-1v0c0-0.6-0.5-1-1.2-1h-1.5v2H78.7z"/>
		<path class="st0" d="M82,8.9c0-0.2,0.1-0.3,0.3-0.3c0.2,0,0.3,0.1,0.3,0.3v4.4c0,0.2-0.1,0.3-0.3,0.3c-0.1,0-0.3-0.1-0.3-0.3V8.9z
			"/>
		<path class="st0" d="M84.1,11.1L84.1,11.1c0-1.4,1-2.5,2.5-2.5c1.5,0,2.5,1.2,2.5,2.5v0c0,1.3-1,2.5-2.5,2.5
			C85.1,13.6,84.1,12.5,84.1,11.1 M88.5,11.1L88.5,11.1c0-1.1-0.8-2-1.9-2c-1.1,0-1.9,0.9-1.9,2v0c0,1.1,0.8,2,1.9,2
			C87.7,13.1,88.5,12.2,88.5,11.1"/>
		<path class="st0" d="M90.6,9c0-0.2,0.1-0.3,0.3-0.3h1.8c0.6,0,1.1,0.2,1.4,0.5c0.2,0.2,0.4,0.6,0.4,1v0c0,0.8-0.5,1.3-1.3,1.4
			l1.2,1.6c0.1,0.1,0.1,0.1,0.1,0.2c0,0.1-0.1,0.3-0.3,0.3c-0.1,0-0.2-0.1-0.3-0.1l-1.4-1.8h-1.4v1.6c0,0.2-0.1,0.3-0.3,0.3
			c-0.1,0-0.3-0.1-0.3-0.3V9z M92.6,11.2c0.7,0,1.2-0.4,1.2-1v0c0-0.6-0.5-1-1.2-1h-1.5v2H92.6z"/>
		<path class="st0" d="M56.3,17.1c0-0.2,0.1-0.3,0.3-0.3h1.4c1.5,0,2.6,1,2.6,2.4v0c0,1.4-1.1,2.4-2.6,2.4h-1.4
			c-0.1,0-0.3-0.1-0.3-0.3V17.1z M57.9,21.2c1.2,0,2-0.8,2-1.9v0c0-1.1-0.8-1.9-2-1.9h-1.1v3.8H57.9z"/>
		<path class="st0" d="M62,21.4v-4.3c0-0.2,0.1-0.3,0.3-0.3h3c0.1,0,0.2,0.1,0.2,0.2s-0.1,0.2-0.2,0.2h-2.7V19H65
			c0.1,0,0.2,0.1,0.2,0.2c0,0.1-0.1,0.3-0.2,0.3h-2.4v1.7h2.8c0.1,0,0.2,0.1,0.2,0.2c0,0.1-0.1,0.2-0.2,0.2h-3.1
			C62.2,21.7,62,21.5,62,21.4"/>
		<path class="st0" d="M69.5,17.1c0-0.1,0.1-0.3,0.3-0.3h0.1c0.1,0,0.2,0.1,0.3,0.1l1.7,2.6l1.7-2.6c0.1-0.1,0.1-0.1,0.3-0.1h0.1
			c0.1,0,0.3,0.1,0.3,0.3v4.4c0,0.2-0.1,0.3-0.3,0.3c-0.2,0-0.3-0.1-0.3-0.3v-3.6L72,20.1c-0.1,0.1-0.1,0.1-0.2,0.1
			c-0.1,0-0.2,0-0.2-0.1L70,17.8v3.6c0,0.2-0.1,0.3-0.3,0.3c-0.1,0-0.3-0.1-0.3-0.3V17.1z"/>
		<path class="st0" d="M75.7,19.6v-2.6c0-0.2,0.1-0.3,0.3-0.3c0.2,0,0.3,0.1,0.3,0.3v2.5c0,1,0.6,1.6,1.5,1.6c0.9,0,1.5-0.5,1.5-1.6
			v-2.6c0-0.2,0.1-0.3,0.3-0.3c0.1,0,0.3,0.1,0.3,0.3v2.5c0,1.4-0.8,2.1-2,2.1C76.6,21.7,75.7,21,75.7,19.6 M77.6,16.3
			c0,0,0-0.1,0-0.1l0.4-0.6c0.1-0.1,0.1-0.2,0.3-0.2c0.2,0,0.4,0.1,0.4,0.2c0,0.1,0,0.1-0.1,0.2l-0.5,0.5c-0.1,0.1-0.2,0.1-0.3,0.1
			C77.7,16.4,77.6,16.4,77.6,16.3"/>
		<path class="st0" d="M81.3,21.1c-0.1,0-0.1-0.1-0.1-0.2c0-0.2,0.1-0.3,0.3-0.3c0.1,0,0.1,0,0.2,0.1c0.5,0.4,0.9,0.6,1.5,0.6
			c0.7,0,1.1-0.3,1.1-0.8v0c0-0.4-0.2-0.7-1.3-0.9c-1.1-0.2-1.6-0.6-1.6-1.4v0c0-0.8,0.7-1.3,1.6-1.3c0.6,0,1.1,0.2,1.5,0.5
			c0.1,0,0.1,0.1,0.1,0.2c0,0.1-0.1,0.3-0.3,0.3c-0.1,0-0.1,0-0.2,0c-0.4-0.3-0.8-0.4-1.3-0.4c-0.6,0-1,0.3-1,0.8v0
			c0,0.5,0.3,0.7,1.3,0.9c1.1,0.2,1.6,0.6,1.6,1.4v0c0,0.8-0.7,1.4-1.7,1.4C82.4,21.7,81.8,21.5,81.3,21.1"/>
		<path class="st0" d="M86.3,17.1c0-0.2,0.1-0.3,0.3-0.3c0.1,0,0.3,0.1,0.3,0.3v4.4c0,0.2-0.1,0.3-0.3,0.3c-0.1,0-0.3-0.1-0.3-0.3
			V17.1z"/>
		<path class="st0" d="M88.4,19.3L88.4,19.3c0-1.4,1-2.5,2.5-2.5c0.8,0,1.3,0.3,1.7,0.6c0.1,0,0.1,0.1,0.1,0.2
			c0,0.1-0.1,0.3-0.3,0.3c-0.1,0-0.1,0-0.2-0.1c-0.4-0.3-0.8-0.6-1.4-0.6c-1.1,0-1.9,0.9-1.9,2v0c0,1.1,0.8,2,1.9,2
			c0.6,0,1-0.2,1.4-0.6c0,0,0.1-0.1,0.2-0.1c0.1,0,0.3,0.1,0.3,0.3c0,0.1,0,0.2-0.1,0.2c-0.5,0.4-1,0.7-1.8,0.7
			C89.4,21.8,88.4,20.6,88.4,19.3"/>
		<path class="st0" d="M93.8,21.3l2-4.3c0.1-0.2,0.2-0.2,0.3-0.2h0c0.2,0,0.3,0.1,0.3,0.2l2,4.3c0,0,0,0.1,0,0.1
			c0,0.1-0.1,0.3-0.3,0.3c-0.1,0-0.2-0.1-0.3-0.2l-0.5-1.1h-2.7l-0.5,1.1c0,0.1-0.1,0.2-0.3,0.2c-0.1,0-0.2-0.1-0.2-0.2
			C93.7,21.4,93.7,21.4,93.8,21.3 M97.2,19.9l-1.1-2.5L95,19.9H97.2z"/>
		<g>
			<path class="st0" d="M56.1,35l3.2-7.2c0.2-0.5,0.6-0.8,1.2-0.8h0.1c0.5,0,0.9,0.3,1.2,0.8l3.2,7.2c0.1,0.1,0.1,0.3,0.1,0.4
				c0,0.5-0.4,1-1,1c-0.5,0-0.8-0.3-1-0.7l-0.6-1.4h-4l-0.6,1.5c-0.2,0.4-0.5,0.6-0.9,0.6c-0.5,0-0.9-0.4-0.9-0.9
				C56,35.3,56,35.1,56.1,35z M61.8,32.5l-1.3-3l-1.3,3H61.8z"/>
		</g>
		<path class="st0" d="M66.4,35.3c-0.2-0.2-0.4-0.4-0.4-0.8c0-0.5,0.4-0.9,0.9-0.9c0.3,0,0.4,0.1,0.6,0.2c0.7,0.5,1.5,0.8,2.3,0.8
			c0.8,0,1.3-0.3,1.3-0.9v0c0-0.5-0.3-0.8-1.8-1.2c-1.8-0.5-3-1-3-2.8v0c0-1.7,1.3-2.8,3.2-2.8c1.1,0,2.1,0.3,2.9,0.8
			c0.2,0.1,0.4,0.4,0.4,0.8c0,0.5-0.4,0.9-0.9,0.9c-0.2,0-0.4-0.1-0.5-0.1c-0.7-0.4-1.3-0.6-1.9-0.6c-0.8,0-1.2,0.4-1.2,0.8v0
			c0,0.6,0.4,0.8,2,1.2c1.9,0.5,2.9,1.1,2.9,2.7v0c0,1.8-1.4,2.8-3.4,2.8C68.6,36.4,67.4,36,66.4,35.3"/>
		<path class="st0" d="M77.1,29h-1.9c-0.5,0-0.9-0.4-0.9-0.9c0-0.5,0.4-0.9,0.9-0.9H81c0.5,0,0.9,0.4,0.9,0.9c0,0.5-0.4,0.9-0.9,0.9
			h-1.9v6.4c0,0.6-0.4,1-1,1s-1-0.4-1-1V29z"/>
		<path class="st0" d="M83,31.7L83,31.7c0-2.6,2.1-4.7,4.9-4.7c2.8,0,4.8,2.1,4.8,4.7v0c0,2.6-2.1,4.7-4.9,4.7
			C85,36.4,83,34.3,83,31.7 M90.6,31.7L90.6,31.7c0-1.6-1.2-2.9-2.8-2.9c-1.6,0-2.7,1.3-2.7,2.8v0c0,1.6,1.1,2.9,2.8,2.9
			C89.5,34.6,90.6,33.3,90.6,31.7"/>
		<path class="st0" d="M94.5,28.2c0-0.6,0.4-1,1-1h3.2c1.2,0,2.1,0.3,2.7,0.9c0.5,0.5,0.8,1.2,0.8,2.1v0c0,1.4-0.7,2.3-1.8,2.8
			l1.4,1.7c0.2,0.2,0.3,0.5,0.3,0.8c0,0.6-0.5,0.9-1,0.9c-0.5,0-0.8-0.2-1-0.5l-2-2.5h-1.6v2c0,0.6-0.4,1-1,1c-0.6,0-1-0.4-1-1V28.2
			z M98.6,31.6c1,0,1.5-0.5,1.5-1.3v0c0-0.9-0.6-1.3-1.6-1.3h-2v2.6H98.6z"/>
		<g>
			<path class="st0" d="M56.3,41.8c0-0.6,0.4-1,1-1H60c2.2,0,3.5,1.3,3.5,3.2v0c0,2.1-1.6,3.2-3.7,3.2h-1.5V49c0,0.6-0.4,1-1,1
				c-0.6,0-1-0.4-1-1V41.8z M59.9,45.4c1,0,1.6-0.6,1.6-1.4v0c0-0.9-0.6-1.4-1.6-1.4h-1.6v2.8H59.9z"/>
			<path class="st0" d="M65.1,41.7c0-0.6,0.4-1,1-1c0.6,0,1,0.4,1,1V49c0,0.6-0.4,1-1,1c-0.6,0-1-0.4-1-1V41.7z"/>
			<path class="st0" d="M68.9,48.6l3.2-7.2c0.2-0.5,0.6-0.8,1.2-0.8h0.1c0.5,0,0.9,0.3,1.2,0.8l3.2,7.2c0.1,0.1,0.1,0.3,0.1,0.4
				c0,0.5-0.4,1-1,1c-0.5,0-0.8-0.3-1-0.7l-0.6-1.4h-4l-0.6,1.5c-0.2,0.4-0.5,0.6-0.9,0.6c-0.5,0-0.9-0.4-0.9-0.9
				C68.8,48.9,68.8,48.7,68.9,48.6 M74.5,46.1l-1.3-3l-1.3,3H74.5z"/>
			<path class="st0" d="M79,49L79,49c0-0.4,0.1-0.7,0.4-1l4.7-5.5h-4.1c-0.5,0-0.9-0.4-0.9-0.9c0-0.5,0.4-0.9,0.9-0.9h5.8
				c0.5,0,0.9,0.4,0.9,0.9v0c0,0.4-0.1,0.7-0.4,0.9l-4.7,5.5h4.2c0.5,0,0.9,0.4,0.9,0.9c0,0.5-0.4,0.9-0.9,0.9h-6
				C79.5,49.9,79,49.5,79,49"/>
			<path class="st0" d="M87.9,49L87.9,49c0-0.4,0.1-0.7,0.4-1l4.7-5.5h-4.1c-0.5,0-0.9-0.4-0.9-0.9c0-0.5,0.4-0.9,0.9-0.9h5.8
				c0.5,0,0.9,0.4,0.9,0.9v0c0,0.4-0.1,0.7-0.4,0.9l-4.7,5.5h4.2c0.5,0,0.9,0.4,0.9,0.9c0,0.5-0.4,0.9-0.9,0.9h-6
				C88.3,49.9,87.9,49.5,87.9,49"/>
			<path class="st0" d="M96.2,45.3L96.2,45.3c0-2.6,2.1-4.7,4.9-4.7c2.8,0,4.8,2.1,4.8,4.7v0c0,2.6-2.1,4.7-4.9,4.7
				C98.3,50,96.2,47.9,96.2,45.3 M103.9,45.3L103.9,45.3c0-1.6-1.1-2.9-2.8-2.9c-1.6,0-2.7,1.3-2.7,2.8v0c0,1.6,1.1,2.9,2.8,2.9
				C102.7,48.2,103.9,46.9,103.9,45.3"/>
			<path class="st0" d="M107.8,41.7c0-0.6,0.4-1,1-1c0.6,0,1,0.4,1,1v6.4h3.7c0.5,0,0.9,0.4,0.9,0.9c0,0.5-0.4,0.9-0.9,0.9h-4.7
				c-0.6,0-1-0.4-1-1V41.7z"/>
			<path class="st0" d="M115.8,41.7c0-0.6,0.4-1,1-1s1,0.4,1,1v6.4h3.7c0.5,0,0.9,0.4,0.9,0.9c0,0.5-0.4,0.9-0.9,0.9h-4.7
				c-0.6,0-1-0.4-1-1V41.7z"/>
			<path class="st0" d="M123.4,48.6l3.2-7.2c0.2-0.5,0.6-0.8,1.2-0.8h0.1c0.5,0,0.9,0.3,1.2,0.8l3.2,7.2c0.1,0.1,0.1,0.3,0.1,0.4
				c0,0.5-0.4,1-1,1c-0.5,0-0.8-0.3-1-0.7l-0.6-1.4h-4l-0.6,1.5c-0.2,0.4-0.5,0.6-0.9,0.6c-0.5,0-0.9-0.4-0.9-0.9
				C123.3,48.9,123.3,48.7,123.4,48.6 M129.1,46.1l-1.3-3l-1.3,3H129.1z"/>
		</g>
	</g>
	<g>
		<g>
			<path class="st0" d="M1.4,7.8c-0.6,0-1.1-0.4-1.2-1c0,0,0-0.1,0-0.1c0-0.6,0.4-1.1,1-1.2l47.1-5.4c0.6-0.1,1.2,0.4,1.3,1
				c0,0,0,0.1,0,0.1c0,0.6-0.4,1.1-1,1.2L1.5,7.8C1.5,7.8,1.4,7.8,1.4,7.8z"/>
			<path class="st0" d="M1.3,11.2c-0.6,0-1.2-0.5-1.2-1.1c0,0,0,0,0-0.1c0-0.6,0.5-1.2,1.1-1.2l46.4-2c0.6,0,1.2,0.5,1.2,1.1
				c0,0,0,0,0,0.1c0,0.6-0.5,1.2-1.1,1.2L1.3,11.2C1.4,11.2,1.4,11.2,1.3,11.2z"/>
			<path class="st0" d="M45.6,15.9C45.5,15.9,45.5,15.9,45.6,15.9L1.3,14.6c-0.6,0-1.1-0.5-1.1-1.2c0,0,0,0,0,0
				c0-0.6,0.5-1.1,1.2-1.1c0,0,0,0,0,0l44.2,1.3c0.6,0,1.1,0.5,1.1,1.2c0,0,0,0,0,0C46.7,15.4,46.2,15.9,45.6,15.9z"/>
			<path class="st0" d="M41.8,22.2c0,0-0.1,0-0.1,0L1.2,18.1c-0.6-0.1-1.1-0.6-1.1-1.2c0,0,0-0.1,0-0.1c0.1-0.6,0.6-1.1,1.3-1.1
				l40.5,4.2c0.6,0.1,1.1,0.6,1.1,1.2c0,0,0,0.1,0,0.1C42.9,21.8,42.4,22.2,41.8,22.2z"/>
			<path class="st0" d="M36.7,27.6c-0.1,0-0.1,0-0.2,0L1.1,21.5c-0.6-0.1-1-0.6-1-1.2c0-0.1,0-0.1,0-0.2c0.1-0.6,0.7-1.1,1.4-1
				l35.4,6.1c0.6,0.1,1,0.6,1,1.2c0,0.1,0,0.1,0,0.2C37.7,27.2,37.2,27.6,36.7,27.6z"/>
		</g>
		<g>
			<path class="st0" d="M48.2,34.6c-0.1,0-0.1,0-0.2,0L1,26.5c-0.6-0.1-1-0.6-1-1.2c0-0.1,0-0.1,0-0.2c0.1-0.6,0.7-1.1,1.4-1l47,8.1
				c0.6,0.1,1,0.6,1,1.2c0,0.1,0,0.1,0,0.2C49.3,34.2,48.8,34.6,48.2,34.6z"/>
			<path class="st0" d="M48.2,38c0,0-0.1,0-0.1,0L1.8,33.3c-0.6-0.1-1.1-0.6-1.1-1.2c0,0,0-0.1,0-0.1C0.8,31.4,1.3,30.9,2,31
				l46.3,4.7c0.6,0.1,1.1,0.6,1.1,1.2c0,0,0,0.1,0,0.1C49.3,37.6,48.8,38,48.2,38z"/>
			<path class="st0" d="M48.2,41.5C48.1,41.5,48.1,41.5,48.2,41.5L3.9,40.1c-0.6,0-1.1-0.5-1.1-1.2c0,0,0,0,0,0
				c0-0.7,0.6-1.2,1.2-1.1l44.2,1.4c0.6,0,1.1,0.5,1.1,1.2c0,0,0,0,0,0C49.3,41,48.8,41.5,48.2,41.5z"/>
			<path class="st0" d="M7.5,46.5c-0.6,0-1.2-0.5-1.2-1.1c0,0,0,0,0,0c0-0.6,0.5-1.2,1.1-1.2l40.6-1.6c0.7,0,1.2,0.5,1.2,1.1
				c0,0,0,0,0,0c0,0.6-0.5,1.2-1.1,1.2L7.5,46.5C7.6,46.5,7.5,46.5,7.5,46.5z"/>
			<path class="st0" d="M12.6,51.9c-0.6,0-1.1-0.5-1.2-1.1c0,0,0-0.1,0-0.1c0-0.6,0.5-1.1,1.1-1.2L48,46c0.6-0.1,1.2,0.4,1.3,1.1
				c0,0,0,0.1,0,0.1c0,0.6-0.5,1.1-1.1,1.2l-35.5,3.6C12.7,51.9,12.6,51.9,12.6,51.9z"/>
		</g>
	</g>
</g>
</svg>
