<svg width="50" height="52" viewBox="0 0 50 52" fill="none" xmlns="http://www.w3.org/2000/svg">
<path d="M1.40007 7.71236C0.800073 7.71236 0.300073 7.31239 0.200073 6.71242V6.61243C0.200073 6.01246 0.600073 5.51249 1.20007 5.4125L48.3001 0.0128048C48.9001 -0.0871894 49.5001 0.412782 49.6001 1.01275V1.11274C49.6001 1.71271 49.2001 2.21268 48.6001 2.31267L1.50007 7.71236H1.40007Z" fill="white"/>
<path d="M1.30004 11.1123C0.700037 11.1123 0.100037 10.6124 0.100037 10.0124C0.100037 10.0124 0.100037 10.0124 0.100037 9.9124C0.100037 9.31244 0.600037 8.71247 1.20004 8.71247L47.6 6.71259C48.2 6.71259 48.8 7.21256 48.8 7.81252C48.8 7.81252 48.8 7.81252 48.8 7.91252C48.8 8.51248 48.3 9.11245 47.7 9.11245L1.30004 11.1123C1.40004 11.1123 1.40004 11.1123 1.30004 11.1123Z" fill="white"/>
<path d="M45.6001 15.8121C45.5001 15.8121 45.5001 15.8121 45.6001 15.8121L1.30007 14.5121C0.700073 14.5121 0.200073 14.0122 0.200073 13.3122C0.200073 12.7122 0.700073 12.2123 1.40007 12.2123L45.6001 13.5122C46.2001 13.5122 46.7001 14.0122 46.7001 14.7121C46.7001 15.3121 46.2001 15.8121 45.6001 15.8121Z" fill="white"/>
<path d="M41.8 22.1117H41.7L1.20004 18.0119C0.600037 17.9119 0.100037 17.412 0.100037 16.812V16.712C0.200037 16.112 0.700037 15.6121 1.40004 15.6121L41.9 19.8118C42.5 19.9118 43 20.4118 43 21.0118V21.1118C42.9 21.7117 42.4 22.1117 41.8 22.1117Z" fill="white"/>
<path d="M36.7 27.5114C36.6 27.5114 36.6 27.5114 36.5 27.5114L1.10004 21.4117C0.500037 21.3117 0.100037 20.8118 0.100037 20.2118C0.100037 20.1118 0.100037 20.1118 0.100037 20.0118C0.200037 19.4119 0.800037 18.9119 1.50004 19.0119L36.9 25.1115C37.5 25.2115 37.9 25.7115 37.9 26.3115C37.9 26.4114 37.9 26.4115 37.9 26.5114C37.7 27.1114 37.2 27.5114 36.7 27.5114Z" fill="white"/>
<path d="M48.2 34.511C48.1 34.511 48.1 34.511 48 34.511L1 26.4115C0.4 26.3115 0 25.8115 0 25.2115C0 25.1115 0 25.1115 0 25.0115C0.1 24.4116 0.7 23.9116 1.4 24.0116L48.4 32.1111C49 32.2111 49.4 32.7111 49.4 33.3111C49.4 33.4111 49.4 33.4111 49.4 33.5111C49.3 34.111 48.8 34.511 48.2 34.511Z" fill="white"/>
<path d="M48.2 37.9108H48.1L1.80001 33.2111C1.20001 33.1111 0.700012 32.6111 0.700012 32.0111V31.9112C0.800012 31.3112 1.30001 30.8112 2.00001 30.9112L48.3 35.6109C48.9 35.7109 49.4 36.2109 49.4 36.8109V36.9109C49.3 37.5108 48.8 37.9108 48.2 37.9108Z" fill="white"/>
<path d="M48.2001 41.4106C48.1001 41.4106 48.1001 41.4106 48.2001 41.4106L3.90005 40.0107C3.30005 40.0107 2.80005 39.5107 2.80005 38.8108C2.80005 38.1108 3.40005 37.6108 4.00005 37.7108L48.2001 39.1107C48.8001 39.1107 49.3 39.6107 49.3 40.3107C49.3 40.9106 48.8001 41.4106 48.2001 41.4106Z" fill="white"/>
<path d="M7.49999 46.4103C6.89999 46.4103 6.29999 45.9104 6.29999 45.3104C6.29999 44.7104 6.79999 44.1105 7.39999 44.1105L48 42.5105C48.7 42.5105 49.2 43.0105 49.2 43.6105C49.2 44.2104 48.7 44.8104 48.1 44.8104L7.49999 46.4103Z" fill="white"/>
<path d="M12.6 51.81C12 51.81 11.5 51.31 11.4 50.7101V50.6101C11.4 50.0101 11.9 49.5101 12.5 49.4101L48 45.9103C48.6 45.8104 49.2 46.3103 49.3 47.0103V47.1103C49.3 47.7102 48.8 48.2102 48.2 48.3102L12.7 51.91C12.7 51.81 12.6 51.81 12.6 51.81Z" fill="white"/>
</svg>
